<svg xmlns="http://www.w3.org/2000/svg" viewBox="0 0 800 500" role="img" aria-label="Gaming">
  <defs>
    <linearGradient id="g" x1="0" y1="0" x2="1" y2="1">
      <stop offset="0" stop-color="#0b1220"/>
      <stop offset="1" stop-color="#131a2b"/>
    </linearGradient>
    <radialGradient id="glow" cx="0.5" cy="0.4" r="0.6">
      <stop offset="0" stop-color="#a855f7" stop-opacity="0.28"/>
      <stop offset="1" stop-color="#a855f7" stop-opacity="0"/>
    </radialGradient>
  </defs>
  <rect width="800" height="500" fill="url(#g)"/>
  <rect width="800" height="500" fill="url(#glow)"/>
  <g transform="translate(400 210)" fill="none" stroke="#22d3ee" stroke-width="9" stroke-linecap="round" stroke-linejoin="round">
    <path d="M-90 -28 h180 a52 52 0 0 1 52 52 v6 a40 40 0 0 1 -76 16 h-132 a40 40 0 0 1 -76 -16 v-6 a52 52 0 0 1 52 -52 z"/>
    <path d="M-58 8 v32 M-74 24 h32"/>
    <circle cx="62" cy="14" r="7" fill="#22d3ee" stroke="none"/>
    <circle cx="92" cy="32" r="7" fill="#22d3ee" stroke="none"/>
  </g>
  <text x="400" y="420" text-anchor="middle" font-family="Arial, sans-serif" font-size="34" font-weight="bold" fill="#e5e7eb">Gaming / Consolas</text>
  <text x="400" y="455" text-anchor="middle" font-family="Arial, sans-serif" font-size="18" fill="#9ca3af">Foto provisional</text>
</svg>
